<svg id="Capa_1" enable-background="new 0 0 512 512" height="512" viewBox="0 0 512 512" width="512" xmlns="http://www.w3.org/2000/svg" xmlns:xlink="http://www.w3.org/1999/xlink"><linearGradient id="SVGID_1_" gradientUnits="userSpaceOnUse" x1="256" x2="256" y1="512" y2="0"><stop offset="0" stop-color="#5558ff"/><stop offset="1" stop-color="#00c0ff"/></linearGradient><linearGradient id="SVGID_00000073682526456225995610000006121579649462629259_" gradientUnits="userSpaceOnUse" x1="256" x2="256" y1="438.816" y2="60"><stop offset="0" stop-color="#addcff"/><stop offset=".5028" stop-color="#eaf6ff"/><stop offset="1" stop-color="#eaf6ff"/></linearGradient><g><g><g><path d="m195 0h-150c-24.814 0-45 20.186-45 45v150c0 24.814 20.186 45 45 45h150c24.814 0 45-20.186 45-45v-150c0-24.814-20.186-45-45-45zm272 0h-150c-24.814 0-45 20.186-45 45v150c0 24.814 20.186 45 45 45h150c24.814 0 45-20.186 45-45v-150c0-24.814-20.186-45-45-45zm0 272h-150c-24.814 0-45 20.186-45 45v150c0 24.814 20.186 45 45 45h150c24.814 0 45-20.186 45-45v-150c0-24.814-20.186-45-45-45zm-272 0h-150c-24.814 0-45 20.186-45 45v150c0 24.814 20.186 45 45 45h150c24.814 0 45-20.186 45-45v-150c0-24.814-20.186-45-45-45z" fill="url(#SVGID_1_)"/></g></g><g><g><path d="m165 105h-30v-30c0-8.291-6.709-15-15-15s-15 6.709-15 15v30h-30c-8.291 0-15 6.709-15 15s6.709 15 15 15h30v30c0 8.291 6.709 15 15 15s15-6.709 15-15v-30h30c8.291 0 15-6.709 15-15s-6.709-15-15-15zm182 30h90c8.291 0 15-6.709 15-15s-6.709-15-15-15h-90c-8.291 0-15 6.709-15 15s6.709 15 15 15zm90 212h-90c-8.291 0-15 6.709-15 15s6.709 15 15 15h90c8.291 0 15-6.709 15-15s-6.709-15-15-15zm0 60h-90c-8.291 0-15 6.709-15 15s6.709 15 15 15h90c8.291 0 15-6.709 15-15s-6.709-15-15-15zm-274.578-57.422c-5.859-5.859-15.352-5.859-21.211 0l-21.211 21.211-21.211-21.211c-5.859-5.859-15.352-5.859-21.211 0s-5.859 15.352 0 21.211l21.211 21.211-21.211 21.211c-5.859 5.859-5.859 15.352 0 21.211s15.351 5.859 21.211 0l21.211-21.211 21.211 21.211c5.859 5.859 15.351 5.859 21.211 0 5.859-5.859 5.859-15.352 0-21.211l-21.211-21.211 21.211-21.211c5.859-5.859 5.859-15.351 0-21.211z" fill="url(#SVGID_00000073682526456225995610000006121579649462629259_)"/></g></g></g></svg>